<?xml version="1.0" encoding="UTF-8"?>
<svg version="1.1" xmlns="http://www.w3.org/2000/svg" width="50" height="50">
<path d="M0 0 C1.32 0 2.64 0 4 0 C5.32 4.29 6.64 8.58 8 13 C12.95 13.33 17.9 13.66 23 14 C21.91377526 18.34489895 21.49606054 18.79124779 18.0625 21.25 C17.35222656 21.77078125 16.64195313 22.2915625 15.91015625 22.828125 C14 24 14 24 12 24 C12.30035156 24.90363281 12.60070312 25.80726562 12.91015625 26.73828125 C13.29042969 27.91777344 13.67070313 29.09726562 14.0625 30.3125 C14.44535156 31.48425781 14.82820313 32.65601563 15.22265625 33.86328125 C16 37 16 37 15 40 C11.56049636 39.38801624 9.48435515 38.07941153 6.75 35.9375 C6.04359375 35.38964844 5.3371875 34.84179688 4.609375 34.27734375 C4.07828125 33.85582031 3.5471875 33.43429688 3 33 C-0.47696555 34.62410891 -3.24542651 36.6752873 -6.21875 39.07421875 C-8 40 -8 40 -10.21875 39.64453125 C-10.8065625 39.43183594 -11.394375 39.21914063 -12 39 C-11.77183594 38.25234375 -11.54367188 37.5046875 -11.30859375 36.734375 C-11.02113281 35.74953125 -10.73367188 34.7646875 -10.4375 33.75 C-10.14746094 32.77546875 -9.85742188 31.8009375 -9.55859375 30.796875 C-8.98649367 27.93237391 -8.76763299 26.62428152 -10 24 C-12.07199462 22.11124219 -12.07199462 22.11124219 -14.5625 20.4375 C-17.06640625 18.68359375 -17.06640625 18.68359375 -19 17 C-19 16.01 -19 15.02 -19 14 C-14.05 14 -9.1 14 -4 14 C-3.525625 12.246875 -3.05125 10.49375 -2.5625 8.6875 C-1.77029018 5.75976807 -0.95928532 2.87785595 0 0 Z " fill="#030303" transform="translate(23,5)"/>
</svg>
